# Blender v2.79 (sub 0) OBJ File: ''
# www.blender.org
mtllib IcoSphere.mtl
o Icosphere
v 0.000000 -1.000000 -0.000000
v -0.162456 -0.850654 0.499995
v 0.425323 -0.850654 0.309011
v 0.723607 -0.447220 0.525725
v 0.850648 -0.525736 -0.000000
v -0.525730 -0.850652 -0.000000
v -0.162456 -0.850654 -0.499995
v 0.425323 -0.850654 -0.309011
v 0.951058 -0.000000 0.309013
v -0.276388 -0.447220 0.850649
v 0.000000 -0.000000 1.000000
v 0.262869 -0.525738 0.809012
v -0.894426 -0.447216 -0.000000
v -0.951058 -0.000000 0.309013
v -0.688189 -0.525736 0.499997
v -0.276388 -0.447220 -0.850649
v -0.587786 0.000000 -0.809017
v -0.688189 -0.525736 -0.499997
v 0.723607 -0.447220 -0.525725
v 0.587786 0.000000 -0.809017
v 0.262869 -0.525738 -0.809012
v 0.587786 -0.000000 0.809017
v -0.587786 -0.000000 0.809017
v -0.951058 0.000000 -0.309013
v 0.000000 0.000000 -1.000000
v 0.951058 0.000000 -0.309013
v 0.276388 0.447220 0.850649
v 0.162456 0.850654 0.499995
v 0.688189 0.525736 0.499997
v -0.723607 0.447220 0.525725
v -0.425323 0.850654 0.309011
v -0.262869 0.525738 0.809012
v -0.723607 0.447220 -0.525725
v -0.425323 0.850654 -0.309011
v -0.850648 0.525736 0.000000
v 0.276388 0.447220 -0.850649
v 0.162456 0.850654 -0.499995
v -0.262869 0.525738 -0.809012
v 0.894426 0.447216 0.000000
v 0.525730 0.850652 0.000000
v 0.688189 0.525736 -0.499997
v 0.000000 1.000000 0.000000
vn 0.1024 -0.9435 0.3151
vn 0.7002 -0.6617 0.2680
vn -0.2680 -0.9435 0.1947
vn -0.2680 -0.9435 -0.1947
vn 0.1024 -0.9435 -0.3151
vn 0.9050 -0.3304 0.2680
vn 0.0247 -0.3304 0.9435
vn -0.8897 -0.3304 0.3151
vn -0.5746 -0.3304 -0.7488
vn 0.5346 -0.3304 -0.7779
vn 0.8026 -0.1256 0.5831
vn -0.3066 -0.1256 0.9435
vn -0.9921 -0.1256 -0.0000
vn -0.3066 -0.1256 -0.9435
vn 0.8026 -0.1256 -0.5831
vn 0.4089 0.6617 0.6284
vn -0.4713 0.6617 0.5831
vn -0.7002 0.6617 -0.2680
vn 0.0385 0.6617 -0.7488
vn 0.7240 0.6617 -0.1947
vn 0.2680 0.9435 -0.1947
vn 0.4911 0.7947 -0.3568
vn 0.4089 0.6617 -0.6284
vn -0.1024 0.9435 -0.3151
vn -0.1876 0.7947 -0.5773
vn -0.4713 0.6617 -0.5831
vn -0.3313 0.9435 0.0000
vn -0.6071 0.7947 0.0000
vn -0.7002 0.6617 0.2680
vn -0.1024 0.9435 0.3151
vn -0.1876 0.7947 0.5773
vn 0.0385 0.6617 0.7488
vn 0.2680 0.9435 0.1947
vn 0.4911 0.7947 0.3568
vn 0.7240 0.6617 0.1947
vn 0.8897 0.3304 -0.3151
vn 0.7947 0.1876 -0.5773
vn 0.5746 0.3304 -0.7488
vn -0.0247 0.3304 -0.9435
vn -0.3035 0.1876 -0.9342
vn -0.5346 0.3304 -0.7779
vn -0.9050 0.3304 -0.2680
vn -0.9822 0.1876 0.0000
vn -0.9050 0.3304 0.2680
vn -0.5346 0.3304 0.7779
vn -0.3035 0.1876 0.9342
vn -0.0247 0.3304 0.9435
vn 0.5746 0.3304 0.7488
vn 0.7947 0.1876 0.5773
vn 0.8897 0.3304 0.3151
vn 0.3066 0.1256 -0.9435
vn 0.3035 -0.1876 -0.9342
vn 0.0247 -0.3304 -0.9435
vn -0.8026 0.1256 -0.5831
vn -0.7947 -0.1876 -0.5773
vn -0.8897 -0.3304 -0.3151
vn -0.8026 0.1256 0.5831
vn -0.7947 -0.1876 0.5773
vn -0.5746 -0.3304 0.7488
vn 0.3066 0.1256 0.9435
vn 0.3035 -0.1876 0.9342
vn 0.5346 -0.3304 0.7779
vn 0.9921 0.1256 0.0000
vn 0.9822 -0.1876 -0.0000
vn 0.9050 -0.3304 -0.2680
vn 0.4713 -0.6617 -0.5831
vn 0.1876 -0.7947 -0.5773
vn -0.0385 -0.6617 -0.7488
vn -0.4089 -0.6617 -0.6284
vn -0.4911 -0.7947 -0.3568
vn -0.7240 -0.6617 -0.1947
vn -0.7240 -0.6617 0.1947
vn -0.4911 -0.7947 0.3568
vn -0.4089 -0.6617 0.6284
vn 0.7002 -0.6617 -0.2680
vn 0.6071 -0.7947 0.0000
vn 0.3313 -0.9435 -0.0000
vn -0.0385 -0.6617 0.7488
vn 0.1876 -0.7947 0.5773
vn 0.4713 -0.6617 0.5831
usemtl None
s 1
f 1//1 3//1 2//1
f 4//2 3//2 5//2
f 1//3 2//3 6//3
f 1//4 6//4 7//4
f 1//5 7//5 8//5
f 4//6 5//6 9//6
f 10//7 12//7 11//7
f 13//8 15//8 14//8
f 16//9 18//9 17//9
f 19//10 21//10 20//10
f 4//11 9//11 22//11
f 10//12 11//12 23//12
f 13//13 14//13 24//13
f 16//14 17//14 25//14
f 19//15 20//15 26//15
f 27//16 29//16 28//16
f 30//17 32//17 31//17
f 33//18 35//18 34//18
f 36//19 38//19 37//19
f 39//20 41//20 40//20
f 40//21 37//21 42//21
f 40//22 41//22 37//22
f 41//23 36//23 37//23
f 37//24 34//24 42//24
f 37//25 38//25 34//25
f 38//26 33//26 34//26
f 34//27 31//27 42//27
f 34//28 35//28 31//28
f 35//29 30//29 31//29
f 31//30 28//30 42//30
f 31//31 32//31 28//31
f 32//32 27//32 28//32
f 28//33 40//33 42//33
f 28//34 29//34 40//34
f 29//35 39//35 40//35
f 26//36 41//36 39//36
f 26//37 20//37 41//37
f 20//38 36//38 41//38
f 25//39 38//39 36//39
f 25//40 17//40 38//40
f 17//41 33//41 38//41
f 24//42 35//42 33//42
f 24//43 14//43 35//43
f 14//44 30//44 35//44
f 23//45 32//45 30//45
f 23//46 11//46 32//46
f 11//47 27//47 32//47
f 22//48 29//48 27//48
f 22//49 9//49 29//49
f 9//50 39//50 29//50
f 20//51 25//51 36//51
f 20//52 21//52 25//52
f 21//53 16//53 25//53
f 17//54 24//54 33//54
f 17//55 18//55 24//55
f 18//56 13//56 24//56
f 14//57 23//57 30//57
f 14//58 15//58 23//58
f 15//59 10//59 23//59
f 11//60 22//60 27//60
f 11//61 12//61 22//61
f 12//62 4//62 22//62
f 9//63 26//63 39//63
f 9//64 5//64 26//64
f 5//65 19//65 26//65
f 8//66 21//66 19//66
f 8//67 7//67 21//67
f 7//68 16//68 21//68
f 7//69 18//69 16//69
f 7//70 6//70 18//70
f 6//71 13//71 18//71
f 6//72 15//72 13//72
f 6//73 2//73 15//73
f 2//74 10//74 15//74
f 5//75 8//75 19//75
f 5//76 3//76 8//76
f 3//77 1//77 8//77
f 2//78 12//78 10//78
f 2//79 3//79 12//79
f 3//80 4//80 12//80
